<svg width="1195.3375244140625px" height="122.021240234375px" xmlns="http://www.w3.org/2000/svg" viewBox="-347.66876220703125 13.9893798828125 1195.3375244140625 122.021240234375" style="background: rgba(0, 0, 0, 0);" preserveAspectRatio="xMidYMid"><defs><filter id="editing-extrusion" x="-100%" y="-100%" width="300%" height="300%"><feFlood result="color1" flood-color="#444"></feFlood><feConvolveMatrix order="8,8" divisor="1" kernelMatrix="1 0 0 0 0 0 0 0 0 1 0 0 0 0 0 0 0 0 1 0 0 0 0 0 0 0 0 1 0 0 0 0 0 0 0 0 1 0 0 0 0 0 0 0 0 1 0 0 0 0 0 0 0 0 1 0 0 0 0 0 0 0 0 1" in="SourceAlpha" result="extrude"></feConvolveMatrix><feComposite in="color1" in2="extrude" result="comp-extrude" operator="in"></feComposite><feOffset dx="4" dy="4" in="comp-extrude" result="offset-extrude"></feOffset><feMerge><feMergeNode in="offset-extrude"></feMergeNode><feMergeNode in="SourceGraphic"></feMergeNode></feMerge></filter></defs><g filter="url(#editing-extrusion)"><g transform="translate(-180.26250731945038, 104.46218872070312)"><path d="M26.05-29.57L26.05-29.57L26.05-29.57Q27.01-31.49 27.01-33.28L27.01-33.28L27.01-33.28Q27.01-35.07 26.82-36.06L26.82-36.06L26.82-36.06Q26.62-37.06 26.18-37.82L26.18-37.82L26.18-37.82Q25.22-39.49 23.30-39.49L23.30-39.49L23.30-39.49Q20.93-39.49 19.01-37.76L19.01-37.76L19.01-37.76Q16.96-35.97 16.96-33.15L16.96-33.15L16.96-33.15Q16.96-31.36 18.21-29.98L18.21-29.98L18.21-29.98Q19.46-28.61 21.38-27.33L21.38-27.33L21.38-27.33Q23.30-26.05 25.47-24.77L25.47-24.77L25.47-24.77Q27.65-23.49 29.57-21.95L29.57-21.95L29.57-21.95Q33.98-18.43 33.98-13.70L33.98-13.70L33.98-13.70Q33.98-10.50 32.29-7.78L32.29-7.78L32.29-7.78Q30.59-5.06 27.78-3.07L27.78-3.07L27.78-3.07Q21.63 1.28 13.50 1.28L13.50 1.28L13.50 1.28Q6.91 1.28 3.52-0.86L3.52-0.86L3.52-0.86Q0.13-3.01 0.13-6.27L0.13-6.27L0.13-6.27Q0.13-12.10 4.67-13.57L4.67-13.57L4.67-13.57Q5.95-14.02 7.90-14.02L7.90-14.02L7.90-14.02Q9.86-14.02 12.10-13.18L12.10-13.18L12.10-13.18Q11.07-10.56 11.07-8.19L11.07-8.19L11.07-8.19Q11.07-3.07 14.72-3.07L14.72-3.07L14.72-3.07Q17.09-3.07 19.04-4.80L19.04-4.80L19.04-4.80Q20.99-6.53 20.99-8.48L20.99-8.48L20.99-8.48Q20.99-10.43 19.74-11.84L19.74-11.84L19.74-11.84Q18.50-13.25 16.64-14.37L16.64-14.37L16.64-14.37Q14.78-15.49 12.64-16.58L12.64-16.58L12.64-16.58Q10.50-17.66 8.64-19.20L8.64-19.20L8.64-19.20Q4.29-22.72 4.29-28.35L4.29-28.35L4.29-28.35Q4.29-32 6.08-34.85L6.08-34.85L6.08-34.85Q7.87-37.70 10.75-39.62L10.75-39.62L10.75-39.62Q16.51-43.52 23.58-43.52L23.58-43.52L23.58-43.52Q30.66-43.52 34.08-41.41L34.08-41.41L34.08-41.41Q37.50-39.30 37.50-35.71L37.50-35.71L37.50-35.71Q37.50-32.58 35.07-30.59L35.07-30.59L35.07-30.59Q32.96-28.93 30.40-28.93L30.40-28.93L30.40-28.93Q27.84-28.93 26.05-29.57ZM70.27-26.62L70.27-26.62L70.27-26.62Q70.27-23.94 68.03-22.27L68.03-22.27L68.03-22.27Q65.79-20.61 62.14-20.61L62.14-20.61L62.14-20.61Q60.61-20.61 59.71-21.06L59.71-21.06L59.71-21.06Q60.42-22.72 60.64-24.80L60.64-24.80L60.64-24.80Q60.86-26.88 60.86-27.46L60.86-27.46L60.86-27.46Q60.86-30.14 59.01-30.14L59.01-30.14L59.01-30.14Q57.73-30.14 56.29-28.54L56.29-28.54L56.29-28.54Q54.85-26.94 53.63-24.45L53.63-24.45L53.63-24.45Q50.94-18.69 50.94-12.86L50.94-12.86L50.94-12.86Q50.94-9.66 52.16-8.22L52.16-8.22L52.16-8.22Q53.38-6.78 56.06-6.78L56.06-6.78L56.06-6.78Q59.78-6.78 62.72-9.86L62.72-9.86L62.72-9.86Q63.55-10.82 64-11.90L64-11.90L64-11.90Q66.43-10.62 66.43-7.10L66.43-7.10L66.43-7.10Q66.43-3.52 62.46-1.15L62.46-1.15L62.46-1.15Q58.37 1.28 51.84 1.28L51.84 1.28L51.84 1.28Q38.85 1.28 38.85-12.48L38.85-12.48L38.85-12.48Q38.85-22.53 44.54-28.29L44.54-28.29L44.54-28.29Q50.05-33.92 60.16-33.92L60.16-33.92L60.16-33.92Q70.27-33.92 70.27-26.62ZM104.19-7.10L104.19-7.10L104.19-7.10Q104.19-4.29 107.07-3.46L107.07-3.46L107.07-3.46Q106.37-1.09 103.62 0.19L103.62 0.19L103.62 0.19Q101.31 1.28 98.78 1.28L98.78 1.28L98.78 1.28Q96.26 1.28 94.94 0.61L94.94 0.61L94.94 0.61Q93.63-0.06 92.93-1.15L92.93-1.15L92.93-1.15Q91.78-2.82 91.78-5.95L91.78-5.95L91.78-5.95Q91.78-7.81 92.80-12.93L92.80-12.93L93.70-17.79L93.70-17.79Q94.78-23.36 94.78-25.41L94.78-25.41L94.78-25.41Q94.78-28.99 92.80-28.99L92.80-28.99L92.80-28.99Q90.30-28.99 88.70-25.34L88.70-25.34L88.70-25.34Q88.06-23.94 87.62-21.82L87.62-21.82L83.26 0L70.40 1.28L79.42-44.80L92.29-46.08L91.78-43.52L91.78-43.52Q89.98-33.66 88.45-30.34L88.45-30.34L88.45-30.34Q92.03-33.92 98.62-33.92L98.62-33.92L98.62-33.92Q105.60-33.92 106.88-29.31L106.88-29.31L106.88-29.31Q107.33-27.84 107.33-26.56L107.33-26.56L107.33-26.56Q107.33-25.28 107.23-24.29L107.23-24.29L107.23-24.29Q107.14-23.30 106.82-21.50L106.82-21.50L105.98-16.90L104.51-9.66L104.51-9.66Q104.19-8.19 104.19-7.10ZM126.21 1.28L126.21 1.28L126.21 1.28Q112.13 1.28 112.13-11.97L112.13-11.97L112.13-11.97Q112.13-21.38 117.31-27.46L117.31-27.46L117.31-27.46Q122.82-33.92 132.35-33.92L132.35-33.92L132.35-33.92Q139.26-33.92 142.78-30.72L142.78-30.72L142.78-30.72Q146.30-27.52 146.30-20.80L146.30-20.80L146.30-20.80Q146.30-10.56 140.80-4.61L140.80-4.61L140.80-4.61Q135.42 1.28 126.21 1.28ZM127.87-26.56L127.87-26.56L127.87-26.56Q127.10-24.83 126.50-22.24L126.50-22.24L126.50-22.24Q125.89-19.65 125.12-15.55L125.12-15.55L125.12-15.55Q124.35-11.46 124.35-6.40L124.35-6.40L124.35-6.40Q124.35-4.74 124.90-3.65L124.90-3.65L124.90-3.65Q125.44-2.56 126.91-2.56L126.91-2.56L126.91-2.56Q128.38-2.56 129.31-3.26L129.31-3.26L129.31-3.26Q130.24-3.97 130.94-5.63L130.94-5.63L130.94-5.63Q132.22-8.58 133.25-14.05L133.25-14.05L133.25-14.05Q134.27-19.52 134.37-21.89L134.37-21.89L134.37-21.89Q134.46-24.26 134.46-26.02L134.46-26.02L134.46-26.02Q134.46-27.78 133.95-28.93L133.95-28.93L133.95-28.93Q133.44-30.08 132-30.08L132-30.08L132-30.08Q130.56-30.08 129.60-29.18L129.60-29.18L129.60-29.18Q128.64-28.29 127.87-26.56ZM164.03 1.28L164.03 1.28L164.03 1.28Q149.95 1.28 149.95-11.97L149.95-11.97L149.95-11.97Q149.95-21.38 155.14-27.46L155.14-27.46L155.14-27.46Q160.64-33.92 170.18-33.92L170.18-33.92L170.18-33.92Q177.09-33.92 180.61-30.72L180.61-30.72L180.61-30.72Q184.13-27.52 184.13-20.80L184.13-20.80L184.13-20.80Q184.13-10.56 178.62-4.61L178.62-4.61L178.62-4.61Q173.25 1.28 164.03 1.28ZM165.70-26.56L165.70-26.56L165.70-26.56Q164.93-24.83 164.32-22.24L164.32-22.24L164.32-22.24Q163.71-19.65 162.94-15.55L162.94-15.55L162.94-15.55Q162.18-11.46 162.18-6.40L162.18-6.40L162.18-6.40Q162.18-4.74 162.72-3.65L162.72-3.65L162.72-3.65Q163.26-2.56 164.74-2.56L164.74-2.56L164.74-2.56Q166.21-2.56 167.14-3.26L167.14-3.26L167.14-3.26Q168.06-3.97 168.77-5.63L168.77-5.63L168.77-5.63Q170.05-8.58 171.07-14.05L171.07-14.05L171.07-14.05Q172.10-19.52 172.19-21.89L172.19-21.89L172.19-21.89Q172.29-24.26 172.29-26.02L172.29-26.02L172.29-26.02Q172.29-27.78 171.78-28.93L171.78-28.93L171.78-28.93Q171.26-30.08 169.82-30.08L169.82-30.08L169.82-30.08Q168.38-30.08 167.42-29.18L167.42-29.18L167.42-29.18Q166.46-28.29 165.70-26.56ZM203.20-3.52L203.20-3.52L203.20-3.52Q201.22 1.28 194.88 1.28L194.88 1.28L194.88 1.28Q191.68 1.28 189.63-0.96L189.63-0.96L189.63-0.96Q187.97-2.82 187.97-4.93L187.97-4.93L187.97-4.93Q187.97-9.73 190.21-20.22L190.21-20.22L194.88-44.80L207.87-46.08L201.66-13.70L201.66-13.70Q200.58-8.96 200.58-7.30L200.58-7.30L200.58-7.30Q200.58-3.65 203.20-3.52ZM227.26 0L219.90 0L231.49-42.24L244.86-42.24L247.81-18.11L259.71-42.24L270.91-42.24L272.06-10.62L272.06-10.62Q272.32-4.35 275.39-2.43L275.39-2.43L275.39-2.43Q274.69-1.15 272.64 0.06L272.64 0.06L272.64 0.06Q270.59 1.28 267.87 1.28L267.87 1.28L267.87 1.28Q265.15 1.28 263.55 0.51L263.55 0.51L263.55 0.51Q261.95-0.26 261.06-1.54L261.06-1.54L261.06-1.54Q259.46-3.84 259.46-8.26L259.46-8.26L259.46-28.03L246.85 0L238.91 0L234.43-28.74L227.26 0ZM280.93-1.92L280.93-1.92L280.93-1.92Q279.42-3.58 278.75-6.21L278.75-6.21L278.75-6.21Q278.08-8.83 278.08-13.12L278.08-13.12L278.08-13.12Q278.08-17.41 279.55-21.31L279.55-21.31L279.55-21.31Q281.02-25.22 283.71-28.03L283.71-28.03L283.71-28.03Q289.22-33.92 298.30-33.92L298.30-33.92L298.30-33.92Q301.57-33.92 303.94-32.83L303.94-32.83L314.88-33.92L310.14-8.96L310.14-8.96Q309.95-8.19 309.95-6.78L309.95-6.78L309.95-6.78Q309.95-5.38 310.82-4.48L310.82-4.48L310.82-4.48Q311.68-3.58 312.96-3.46L312.96-3.46L312.96-3.46Q312.32-1.28 309.98 0L309.98 0L309.98 0Q307.65 1.28 305.02 1.28L305.02 1.28L305.02 1.28Q302.40 1.28 300.64 0.29L300.64 0.29L300.64 0.29Q298.88-0.70 298.37-2.37L298.37-2.37L298.37-2.37Q297.34-0.77 295.17 0.26L295.17 0.26L295.17 0.26Q292.99 1.28 290.08 1.28L290.08 1.28L290.08 1.28Q287.17 1.28 284.80 0.51L284.80 0.51L284.80 0.51Q282.43-0.26 280.93-1.92ZM294.43-27.90L294.43-27.90L294.43-27.90Q293.70-26.75 293.06-24.80L293.06-24.80L293.06-24.80Q292.42-22.85 291.36-17.63L291.36-17.63L291.36-17.63Q290.30-12.42 290.30-8.70L290.30-8.70L290.30-8.70Q290.30-4.99 290.88-3.90L290.88-3.90L290.88-3.90Q291.46-2.82 292.48-2.82L292.48-2.82L292.48-2.82Q294.53-2.82 296.03-4.77L296.03-4.77L296.03-4.77Q297.54-6.72 298.11-10.18L298.11-10.18L301.50-28.93L301.50-28.93Q300.16-30.08 298.59-30.08L298.59-30.08L298.59-30.08Q297.02-30.08 296.10-29.57L296.10-29.57L296.10-29.57Q295.17-29.06 294.43-27.90ZM345.41 1.28L345.41 1.28L345.41 1.28Q337.66 1.28 337.66-4.74L337.66-4.74L337.66-4.74Q337.73-6.40 338.24-9.22L338.24-9.22L339.39-15.10L339.39-15.10Q341.12-23.42 341.12-25.28L341.12-25.28L341.12-25.28Q341.12-28.99 338.94-28.99L338.94-28.99L338.94-28.99Q335.30-28.99 333.38-19.46L333.38-19.46L329.60 0L316.74 1.28L323.39-32.70L333.89-33.92L332.86-27.65L332.86-27.65Q335.87-33.92 345.09-33.92L345.09-33.92L345.09-33.92Q349.57-33.92 351.46-32.03L351.46-32.03L351.46-32.03Q353.34-30.14 353.34-25.92L353.34-25.92L353.34-25.92Q353.34-21.95 351.30-12.67L351.30-12.67L351.30-12.67Q350.34-8.51 350.34-6.94L350.34-6.94L350.34-6.94Q350.34-5.38 351.20-4.48L351.20-4.48L351.20-4.48Q352.06-3.58 353.34-3.46L353.34-3.46L353.34-3.46Q352.70-1.28 350.50 0L350.50 0L350.50 0Q348.29 1.28 345.41 1.28ZM361.25-1.92L361.25-1.92L361.25-1.92Q359.74-3.58 359.07-6.21L359.07-6.21L359.07-6.21Q358.40-8.83 358.40-13.12L358.40-13.12L358.40-13.12Q358.40-17.41 359.87-21.31L359.87-21.31L359.87-21.31Q361.34-25.22 364.03-28.03L364.03-28.03L364.03-28.03Q369.54-33.92 378.62-33.92L378.62-33.92L378.62-33.92Q381.89-33.92 384.26-32.83L384.26-32.83L395.20-33.92L390.46-8.96L390.46-8.96Q390.27-8.19 390.27-6.78L390.27-6.78L390.27-6.78Q390.27-5.38 391.14-4.48L391.14-4.48L391.14-4.48Q392.00-3.58 393.28-3.46L393.28-3.46L393.28-3.46Q392.64-1.28 390.30 0L390.30 0L390.30 0Q387.97 1.28 385.34 1.28L385.34 1.28L385.34 1.28Q382.72 1.28 380.96 0.29L380.96 0.29L380.96 0.29Q379.20-0.70 378.69-2.37L378.69-2.37L378.69-2.37Q377.66-0.77 375.49 0.26L375.49 0.26L375.49 0.26Q373.31 1.28 370.40 1.28L370.40 1.28L370.40 1.28Q367.49 1.28 365.12 0.51L365.12 0.51L365.12 0.51Q362.75-0.26 361.25-1.92ZM374.75-27.90L374.75-27.90L374.75-27.90Q374.02-26.75 373.38-24.80L373.38-24.80L373.38-24.80Q372.74-22.85 371.68-17.63L371.68-17.63L371.68-17.63Q370.62-12.42 370.62-8.70L370.62-8.70L370.62-8.70Q370.62-4.99 371.20-3.90L371.20-3.90L371.20-3.90Q371.78-2.82 372.80-2.82L372.80-2.82L372.80-2.82Q374.85-2.82 376.35-4.77L376.35-4.77L376.35-4.77Q377.86-6.72 378.43-10.18L378.43-10.18L381.82-28.93L381.82-28.93Q380.48-30.08 378.91-30.08L378.91-30.08L378.91-30.08Q377.34-30.08 376.42-29.57L376.42-29.57L376.42-29.57Q375.49-29.06 374.75-27.90ZM402.94-26.75L402.94-26.75L402.94-26.75Q405.12-29.82 408.42-31.87L408.42-31.87L408.42-31.87Q411.71-33.92 415.74-33.92L415.74-33.92L415.74-33.92Q419.78-33.92 421.70-32.64L421.70-32.64L434.24-33.92L429.89-9.34L429.89-9.34Q427.65 3.20 422.91 8.13L422.91 8.13L422.91 8.13Q418.37 12.80 409.54 12.80L409.54 12.80L409.54 12.80Q402.82 12.80 398.98 10.69L398.98 10.69L398.98 10.69Q395.14 8.58 395.14 5.06L395.14 5.06L395.14 5.06Q395.14 2.43 397.12 0.93L397.12 0.93L397.12 0.93Q399.10-0.58 402.18-0.58L402.18-0.58L402.18-0.58Q404.86-0.58 406.91 0.64L406.91 0.64L406.91 0.64Q408.13 1.28 408.70 2.18L408.70 2.18L408.70 2.18Q407.23 3.46 407.23 5.57L407.23 5.57L407.23 5.57Q407.23 8.32 409.79 8.32L409.79 8.32L409.79 8.32Q414.08 8.32 416.51-1.79L416.51-1.79L416.51-1.79Q417.22-4.54 417.79-7.30L417.79-7.30L417.79-7.30Q414.91-3.78 408.38-3.78L408.38-3.78L408.38-3.78Q403.84-3.78 401.22-5.95L401.22-5.95L401.22-5.95Q398.59-8.13 398.59-13.25L398.59-13.25L398.59-13.25Q398.59-16.45 399.68-20.06L399.68-20.06L399.68-20.06Q400.77-23.68 402.94-26.75ZM411.26-13.06L411.26-13.06L411.26-13.06Q411.26-8.70 413.50-8.70L413.50-8.70L413.50-8.70Q415.04-8.70 416.51-10.37L416.51-10.37L416.51-10.37Q417.66-11.71 418.11-13.70L418.11-13.70L421.38-30.14L421.38-30.14Q421.06-30.21 420.74-30.34L420.74-30.34L420.74-30.34Q420.10-30.59 419.26-30.59L419.26-30.59L419.26-30.59Q415.36-30.59 413.06-24.19L413.06-24.19L413.06-24.19Q411.26-19.20 411.26-13.06ZM462.66-10.82L462.66-10.82L462.66-10.82Q464.26-9.73 464.26-7.33L464.26-7.33L464.26-7.33Q464.26-4.93 463.04-3.39L463.04-3.39L463.04-3.39Q461.82-1.86 459.84-0.83L459.84-0.83L459.84-0.83Q455.74 1.28 451.33 1.28L451.33 1.28L451.33 1.28Q446.91 1.28 444.32 0.32L444.32 0.32L444.32 0.32Q441.73-0.64 440.00-2.43L440.00-2.43L440.00-2.43Q436.61-5.82 436.61-12.03L436.61-12.03L436.61-12.03Q436.61-21.70 441.86-27.58L441.86-27.58L441.86-27.58Q447.49-33.92 457.28-33.92L457.28-33.92L457.28-33.92Q463.36-33.92 466.37-31.36L466.37-31.36L466.37-31.36Q468.61-29.44 468.61-26.30L468.61-26.30L468.61-26.30Q468.61-15.04 449.15-15.04L449.15-15.04L449.15-15.04Q448.90-13.38 448.90-11.97L448.90-11.97L448.90-11.97Q448.90-9.02 450.21-7.90L450.21-7.90L450.21-7.90Q451.52-6.78 453.95-6.78L453.95-6.78L453.95-6.78Q456.38-6.78 458.98-7.90L458.98-7.90L458.98-7.90Q461.57-9.02 462.66-10.82ZM449.60-17.79L449.60-17.79L449.60-17.79Q454.14-17.79 456.77-20.61L456.77-20.61L456.77-20.61Q459.39-23.30 459.39-27.58L459.39-27.58L459.39-27.58Q459.39-29.06 458.85-29.86L458.85-29.86L458.85-29.86Q458.30-30.66 457.22-30.66L457.22-30.66L457.22-30.66Q456.13-30.66 455.20-30.24L455.20-30.24L455.20-30.24Q454.27-29.82 453.31-28.42L453.31-28.42L453.31-28.42Q450.94-25.22 449.60-17.79ZM516.86 1.28L516.86 1.28L516.86 1.28Q509.12 1.28 509.12-4.74L509.12-4.74L509.12-4.74Q509.12-7.36 510.24-12.45L510.24-12.45L510.24-12.45Q511.36-17.54 511.74-19.58L511.74-19.58L511.74-19.58Q512.64-24.26 512.64-25.73L512.64-25.73L512.64-25.73Q512.64-28.99 510.21-28.99L510.21-28.99L510.21-28.99Q508.61-28.99 507.07-26.78L507.07-26.78L507.07-26.78Q505.54-24.58 504.83-20.16L504.83-20.16L500.86 0L488.38 1.28L491.84-16.13L491.84-16.13Q492.42-19.01 492.93-22.27L492.93-22.27L492.93-22.27Q493.44-25.54 493.44-26.05L493.44-26.05L493.44-26.05Q493.44-28.99 491.26-28.99L491.26-28.99L491.26-28.99Q489.79-28.99 488.19-26.82L488.19-26.82L488.19-26.82Q486.59-24.64 485.70-20.16L485.70-20.16L481.79 0L469.18 1.28L475.90-32.64L486.34-33.92L485.25-27.46L485.25-27.46Q486.91-30.91 489.98-32.42L489.98-32.42L489.98-32.42Q493.06-33.92 497.86-33.92L497.86-33.92L497.86-33.92Q500.61-33.92 502.40-32.58L502.40-32.58L502.40-32.58Q504.19-31.23 504.77-29.06L504.77-29.06L504.77-29.06Q505.86-31.30 508.64-32.61L508.64-32.61L508.64-32.61Q511.42-33.92 514.85-33.92L514.85-33.92L514.85-33.92Q518.27-33.92 519.97-33.18L519.97-33.18L519.97-33.18Q521.66-32.45 522.69-31.23L522.69-31.23L522.69-31.23Q524.42-28.99 524.42-24.90L524.42-24.90L524.42-24.90Q524.42-20.86 522.69-12.48L522.69-12.48L522.69-12.48Q521.79-8.38 521.79-6.88L521.79-6.88L521.79-6.88Q521.79-5.38 522.66-4.48L522.66-4.48L522.66-4.48Q523.52-3.58 524.80-3.46L524.80-3.46L524.80-3.46Q524.16-1.28 521.95 0L521.95 0L521.95 0Q519.74 1.28 516.86 1.28ZM555.65-10.82L555.65-10.82L555.65-10.82Q557.25-9.73 557.25-7.33L557.25-7.33L557.25-7.33Q557.25-4.93 556.03-3.39L556.03-3.39L556.03-3.39Q554.82-1.86 552.83-0.83L552.83-0.83L552.83-0.83Q548.74 1.28 544.32 1.28L544.32 1.28L544.32 1.28Q539.90 1.28 537.31 0.32L537.31 0.32L537.31 0.32Q534.72-0.64 532.99-2.43L532.99-2.43L532.99-2.43Q529.60-5.82 529.60-12.03L529.60-12.03L529.60-12.03Q529.60-21.70 534.85-27.58L534.85-27.58L534.85-27.58Q540.48-33.92 550.27-33.92L550.27-33.92L550.27-33.92Q556.35-33.92 559.36-31.36L559.36-31.36L559.36-31.36Q561.60-29.44 561.60-26.30L561.60-26.30L561.60-26.30Q561.60-15.04 542.14-15.04L542.14-15.04L542.14-15.04Q541.89-13.38 541.89-11.97L541.89-11.97L541.89-11.97Q541.89-9.02 543.20-7.90L543.20-7.90L543.20-7.90Q544.51-6.78 546.94-6.78L546.94-6.78L546.94-6.78Q549.38-6.78 551.97-7.90L551.97-7.90L551.97-7.90Q554.56-9.02 555.65-10.82ZM542.59-17.79L542.59-17.79L542.59-17.79Q547.14-17.79 549.76-20.61L549.76-20.61L549.76-20.61Q552.38-23.30 552.38-27.58L552.38-27.58L552.38-27.58Q552.38-29.06 551.84-29.86L551.84-29.86L551.84-29.86Q551.30-30.66 550.21-30.66L550.21-30.66L550.21-30.66Q549.12-30.66 548.19-30.24L548.19-30.24L548.19-30.24Q547.26-29.82 546.30-28.42L546.30-28.42L546.30-28.42Q543.94-25.22 542.59-17.79ZM590.85 1.28L590.85 1.28L590.85 1.28Q583.10 1.28 583.10-4.74L583.10-4.74L583.10-4.74Q583.17-6.40 583.68-9.22L583.68-9.22L584.83-15.10L584.83-15.10Q586.56-23.42 586.56-25.28L586.56-25.28L586.56-25.28Q586.56-28.99 584.38-28.99L584.38-28.99L584.38-28.99Q580.74-28.99 578.82-19.46L578.82-19.46L575.04 0L562.18 1.28L568.83-32.70L579.33-33.92L578.30-27.65L578.30-27.65Q581.31-33.92 590.53-33.92L590.53-33.92L590.53-33.92Q595.01-33.92 596.90-32.03L596.90-32.03L596.90-32.03Q598.78-30.14 598.78-25.92L598.78-25.92L598.78-25.92Q598.78-21.95 596.74-12.67L596.74-12.67L596.74-12.67Q595.78-8.51 595.78-6.94L595.78-6.94L595.78-6.94Q595.78-5.38 596.64-4.48L596.64-4.48L596.64-4.48Q597.50-3.58 598.78-3.46L598.78-3.46L598.78-3.46Q598.14-1.28 595.94 0L595.94 0L595.94 0Q593.73 1.28 590.85 1.28ZM604.93-6.40L604.93-6.40L604.93-6.40Q604.93-8.13 605.82-12.48L605.82-12.48L609.22-29.76L605.44-29.76L605.70-31.68L605.70-31.68Q613.38-33.98 620.80-39.62L620.80-39.62L623.87-39.62L622.34-32.64L627.33-32.64L626.75-29.76L621.82-29.76L618.56-12.48L618.56-12.48Q617.73-8.51 617.73-7.17L617.73-7.17L617.73-7.17Q617.73-4.10 620.42-3.46L620.42-3.46L620.42-3.46Q619.78-1.28 617.47 0L617.47 0L617.47 0Q615.17 1.28 611.90 1.28L611.90 1.28L611.90 1.28Q608.64 1.28 606.78-0.77L606.78-0.77L606.78-0.77Q604.93-2.82 604.93-6.40ZM665.15-29.57L665.15-29.57L665.15-29.57Q666.11-31.49 666.11-33.28L666.11-33.28L666.11-33.28Q666.11-35.07 665.92-36.06L665.92-36.06L665.92-36.06Q665.73-37.06 665.28-37.82L665.28-37.82L665.28-37.82Q664.32-39.49 662.40-39.49L662.40-39.49L662.40-39.49Q660.03-39.49 658.11-37.76L658.11-37.76L658.11-37.76Q656.06-35.97 656.06-33.15L656.06-33.15L656.06-33.15Q656.06-31.36 657.31-29.98L657.31-29.98L657.31-29.98Q658.56-28.61 660.48-27.33L660.48-27.33L660.48-27.33Q662.40-26.05 664.58-24.77L664.58-24.77L664.58-24.77Q666.75-23.49 668.67-21.95L668.67-21.95L668.67-21.95Q673.09-18.43 673.09-13.70L673.09-13.70L673.09-13.70Q673.09-10.50 671.39-7.78L671.39-7.78L671.39-7.78Q669.70-5.06 666.88-3.07L666.88-3.07L666.88-3.07Q660.74 1.28 652.61 1.28L652.61 1.28L652.61 1.28Q646.02 1.28 642.62-0.86L642.62-0.86L642.62-0.86Q639.23-3.01 639.23-6.27L639.23-6.27L639.23-6.27Q639.23-12.10 643.78-13.57L643.78-13.57L643.78-13.57Q645.06-14.02 647.01-14.02L647.01-14.02L647.01-14.02Q648.96-14.02 651.20-13.18L651.20-13.18L651.20-13.18Q650.18-10.56 650.18-8.19L650.18-8.19L650.18-8.19Q650.18-3.07 653.82-3.07L653.82-3.07L653.82-3.07Q656.19-3.07 658.14-4.80L658.14-4.80L658.14-4.80Q660.10-6.53 660.10-8.48L660.10-8.48L660.10-8.48Q660.10-10.43 658.85-11.84L658.85-11.84L658.85-11.84Q657.60-13.25 655.74-14.37L655.74-14.37L655.74-14.37Q653.89-15.49 651.74-16.58L651.74-16.58L651.74-16.58Q649.60-17.66 647.74-19.20L647.74-19.20L647.74-19.20Q643.39-22.72 643.39-28.35L643.39-28.35L643.39-28.35Q643.39-32 645.18-34.85L645.18-34.85L645.18-34.85Q646.98-37.70 649.86-39.62L649.86-39.62L649.86-39.62Q655.62-43.52 662.69-43.52L662.69-43.52L662.69-43.52Q669.76-43.52 673.18-41.41L673.18-41.41L673.18-41.41Q676.61-39.30 676.61-35.71L676.61-35.71L676.61-35.71Q676.61-32.58 674.18-30.59L674.18-30.59L674.18-30.59Q672.06-28.93 669.50-28.93L669.50-28.93L669.50-28.93Q666.94-28.93 665.15-29.57ZM698.30-7.23L698.30-7.23L698.30-7.23Q694.98-3.78 688.90-3.78L688.90-3.78L688.90-3.78Q681.28-3.78 679.68-9.34L679.68-9.34L679.68-9.34Q679.17-11.01 679.17-12.86L679.17-12.86L679.17-12.86Q679.17-14.72 679.55-16.64L679.55-16.64L682.56-32.64L695.55-33.92L692.03-15.30L692.03-15.30Q691.90-14.46 691.71-13.57L691.71-13.57L691.71-13.57Q691.52-12.67 691.52-11.74L691.52-11.74L691.52-11.74Q691.52-10.82 691.84-10.21L691.84-10.21L691.84-10.21Q692.16-9.60 692.61-9.22L692.61-9.22L692.61-9.22Q693.38-8.70 694.75-8.70L694.75-8.70L694.75-8.70Q696.13-8.70 697.31-10.37L697.31-10.37L697.31-10.37Q698.50-12.03 699.07-14.91L699.07-14.91L702.59-32.64L715.20-33.92L710.40-8.77L710.40-8.77Q708.03 3.52 703.17 8.38L703.17 8.38L703.17 8.38Q700.67 10.88 697.44 11.87L697.44 11.87L697.44 11.87Q694.21 12.86 690.05 12.86L690.05 12.86L690.05 12.86Q683.33 12.86 679.49 10.75L679.49 10.75L679.49 10.75Q675.65 8.64 675.65 5.12L675.65 5.12L675.65 5.12Q675.65 2.50 677.63 0.99L677.63 0.99L677.63 0.99Q679.62-0.51 682.69-0.51L682.69-0.51L682.69-0.51Q685.38-0.51 687.42 0.64L687.42 0.64L687.42 0.64Q688.64 1.34 689.22 2.24L689.22 2.24L689.22 2.24Q687.74 3.52 687.74 5.63L687.74 5.63L687.74 5.63Q687.74 8.45 690.30 8.45L690.30 8.45L690.30 8.45Q694.53 8.45 696.96-1.28L696.96-1.28L696.96-1.28Q697.66-4.16 698.30-7.23ZM736.64-22.46L736.64-22.46L736.64-22.46Q737.54-24.83 737.54-26.88L737.54-26.88L737.54-26.88Q737.54-30.66 734.46-30.66L734.46-30.66L734.46-30.66Q732.86-30.66 731.55-29.22L731.55-29.22L731.55-29.22Q730.24-27.78 730.24-25.98L730.24-25.98L730.24-25.98Q730.24-24.70 731.26-23.68L731.26-23.68L731.26-23.68Q732.74-22.27 736.51-19.97L736.51-19.97L736.51-19.97Q740.29-17.66 741.73-15.78L741.73-15.78L741.73-15.78Q743.17-13.89 743.17-11.30L743.17-11.30L743.17-11.30Q743.17-8.70 741.92-6.34L741.92-6.34L741.92-6.34Q740.67-3.97 738.43-2.30L738.43-2.30L738.43-2.30Q733.63 1.28 725.95 1.28L725.95 1.28L725.95 1.28Q721.79 1.28 718.59-0.90L718.59-0.90L718.59-0.90Q715.39-3.01 715.39-5.50L715.39-5.50L715.39-5.50Q715.39-8 717.22-9.47L717.22-9.47L717.22-9.47Q719.04-10.94 721.73-10.94L721.73-10.94L721.73-10.94Q724.42-10.94 726.08-9.92L726.08-9.92L726.08-9.92Q725.25-7.81 725.25-6.40L725.25-6.40L725.25-6.40Q725.25-2.18 728.83-2.18L728.83-2.18L728.83-2.18Q730.37-2.18 731.39-3.14L731.39-3.14L731.39-3.14Q732.42-4.10 732.42-5.76L732.42-5.76L732.42-5.76Q732.42-9.02 726.91-12.48L726.91-12.48L726.91-12.48Q722.43-15.42 721.41-16.58L721.41-16.58L721.41-16.58Q719.68-18.62 719.68-21.18L719.68-21.18L719.68-21.18Q719.68-23.74 720.90-26.18L720.90-26.18L720.90-26.18Q722.11-28.61 724.35-30.34L724.35-30.34L724.35-30.34Q729.02-33.92 737.15-33.92L737.15-33.92L737.15-33.92Q741.31-33.92 743.78-32.26L743.78-32.26L743.78-32.26Q746.24-30.59 746.24-27.78L746.24-27.78L746.24-27.78Q746.24-24.96 744.54-23.36L744.54-23.36L744.54-23.36Q742.85-21.76 739.78-21.76L739.78-21.76L739.78-21.76Q737.66-21.76 736.64-22.46ZM749.63-6.40L749.63-6.40L749.63-6.40Q749.63-8.13 750.53-12.48L750.53-12.48L753.92-29.76L750.14-29.76L750.40-31.68L750.40-31.68Q758.08-33.98 765.50-39.62L765.50-39.62L768.58-39.62L767.04-32.64L772.03-32.64L771.46-29.76L766.53-29.76L763.26-12.48L763.26-12.48Q762.43-8.51 762.43-7.17L762.43-7.17L762.43-7.17Q762.43-4.10 765.12-3.46L765.12-3.46L765.12-3.46Q764.48-1.28 762.18 0L762.18 0L762.18 0Q759.87 1.28 756.61 1.28L756.61 1.28L756.61 1.28Q753.34 1.28 751.49-0.77L751.49-0.77L751.49-0.77Q749.63-2.82 749.63-6.40ZM797.38-10.82L797.38-10.82L797.38-10.82Q798.98-9.73 798.98-7.33L798.98-7.33L798.98-7.33Q798.98-4.93 797.76-3.39L797.76-3.39L797.76-3.39Q796.54-1.86 794.56-0.83L794.56-0.83L794.56-0.83Q790.46 1.28 786.05 1.28L786.05 1.28L786.05 1.28Q781.63 1.28 779.04 0.32L779.04 0.32L779.04 0.32Q776.45-0.64 774.72-2.43L774.72-2.43L774.72-2.43Q771.33-5.82 771.33-12.03L771.33-12.03L771.33-12.03Q771.33-21.70 776.58-27.58L776.58-27.58L776.58-27.58Q782.21-33.92 792.00-33.92L792.00-33.92L792.00-33.92Q798.08-33.92 801.09-31.36L801.09-31.36L801.09-31.36Q803.33-29.44 803.33-26.30L803.33-26.30L803.33-26.30Q803.33-15.04 783.87-15.04L783.87-15.04L783.87-15.04Q783.62-13.38 783.62-11.97L783.62-11.97L783.62-11.97Q783.62-9.02 784.93-7.90L784.93-7.90L784.93-7.90Q786.24-6.78 788.67-6.78L788.67-6.78L788.67-6.78Q791.10-6.78 793.70-7.90L793.70-7.90L793.70-7.90Q796.29-9.02 797.38-10.82ZM784.32-17.79L784.32-17.79L784.32-17.79Q788.86-17.79 791.49-20.61L791.49-20.61L791.49-20.61Q794.11-23.30 794.11-27.58L794.11-27.58L794.11-27.58Q794.11-29.06 793.57-29.86L793.57-29.86L793.57-29.86Q793.02-30.66 791.94-30.66L791.94-30.66L791.94-30.66Q790.85-30.66 789.92-30.24L789.92-30.24L789.92-30.24Q788.99-29.82 788.03-28.42L788.03-28.42L788.03-28.42Q785.66-25.22 784.32-17.79ZM851.58 1.28L851.58 1.28L851.58 1.28Q843.84 1.28 843.84-4.74L843.84-4.74L843.84-4.74Q843.84-7.36 844.96-12.45L844.96-12.45L844.96-12.45Q846.08-17.54 846.46-19.58L846.46-19.58L846.46-19.58Q847.36-24.26 847.36-25.73L847.36-25.73L847.36-25.73Q847.36-28.99 844.93-28.99L844.93-28.99L844.93-28.99Q843.33-28.99 841.79-26.78L841.79-26.78L841.79-26.78Q840.26-24.58 839.55-20.16L839.55-20.16L835.58 0L823.10 1.28L826.56-16.13L826.56-16.13Q827.14-19.01 827.65-22.27L827.65-22.27L827.65-22.27Q828.16-25.54 828.16-26.05L828.16-26.05L828.16-26.05Q828.16-28.99 825.98-28.99L825.98-28.99L825.98-28.99Q824.51-28.99 822.91-26.82L822.91-26.82L822.91-26.82Q821.31-24.64 820.42-20.16L820.42-20.16L816.51 0L803.90 1.28L810.62-32.64L821.06-33.92L819.97-27.46L819.97-27.46Q821.63-30.91 824.70-32.42L824.70-32.42L824.70-32.42Q827.78-33.92 832.58-33.92L832.58-33.92L832.58-33.92Q835.33-33.92 837.12-32.58L837.12-32.58L837.12-32.58Q838.91-31.23 839.49-29.06L839.49-29.06L839.49-29.06Q840.58-31.30 843.36-32.61L843.36-32.61L843.36-32.61Q846.14-33.92 849.57-33.92L849.57-33.92L849.57-33.92Q852.99-33.92 854.69-33.18L854.69-33.18L854.69-33.18Q856.38-32.45 857.41-31.23L857.41-31.23L857.41-31.23Q859.14-28.99 859.14-24.90L859.14-24.90L859.14-24.90Q859.14-20.86 857.41-12.48L857.41-12.48L857.41-12.48Q856.51-8.38 856.51-6.88L856.51-6.88L856.51-6.88Q856.51-5.38 857.38-4.48L857.38-4.48L857.38-4.48Q858.24-3.58 859.52-3.46L859.52-3.46L859.52-3.46Q858.88-1.28 856.67 0L856.67 0L856.67 0Q854.46 1.28 851.58 1.28Z" fill="#ccc"></path></g></g><style>text {
  font-size: 64px;
  font-family: Arial Black;
  dominant-baseline: central;
  text-anchor: middle;
}</style></svg>