<?xml version="1.0" standalone="no"?>
<!DOCTYPE svg PUBLIC "-//W3C//DTD SVG 20010904//EN"
 "http://www.w3.org/TR/2001/REC-SVG-20010904/DTD/svg10.dtd">
<svg version="1.0" xmlns="http://www.w3.org/2000/svg"
 width="233.000000pt" height="216.000000pt" viewBox="0 0 233.000000 216.000000"
 preserveAspectRatio="xMidYMid meet">

<g transform="translate(0.000000,216.000000) scale(0.100000,-0.100000)"
fill="#000000" stroke="none">
<path d="M1042 2040 c-373 -52 -686 -311 -801 -660 -21 -62 -22 -132 -2 -144
3 -3 14 30 24 72 9 42 38 120 65 172 55 111 37 106 235 69 l128 -24 -6 -70
c-3 -38 -8 -82 -11 -97 -5 -23 -2 -28 14 -28 21 0 24 9 38 133 l6 57 32 -5
c56 -9 250 -25 314 -25 l62 0 0 -80 c0 -73 2 -80 20 -80 17 0 19 8 22 78 l3
77 125 6 c69 3 159 9 201 14 l77 7 5 -28 c3 -16 9 -57 12 -91 6 -53 10 -63 26
-63 22 0 22 5 9 109 -6 41 -9 76 -7 77 1 1 60 14 131 29 71 15 139 31 153 36
21 8 27 4 53 -38 36 -57 88 -187 103 -260 6 -29 14 -53 18 -53 4 0 11 19 14
43 5 33 0 60 -25 128 -109 301 -366 536 -673 614 -110 28 -268 39 -365 25z
m98 -271 l0 -242 -122 7 c-125 7 -268 23 -275 30 -7 6 37 200 65 292 l27 89
66 22 c53 18 127 31 227 42 9 1 12 -53 12 -240z m200 220 c30 -6 76 -17 101
-25 46 -15 46 -15 68 -87 31 -107 60 -226 67 -278 l6 -46 -63 -7 c-35 -3 -126
-9 -201 -13 l-138 -6 0 235 c0 129 3 238 6 241 7 7 67 1 154 -14z m335 -137
c39 -24 110 -85 160 -135 85 -86 88 -90 65 -99 -29 -11 -271 -60 -275 -56 -1
2 -10 43 -19 93 -10 49 -29 127 -42 172 -13 46 -24 88 -24 93 0 13 44 -9 135
-68z m-895 64 c0 -1 -13 -54 -29 -117 -16 -63 -35 -140 -41 -171 -13 -68 -6
-66 -155 -38 -165 32 -159 24 -79 110 77 81 152 141 234 188 51 30 70 37 70
28z"/>
<path d="M60 1253 c0 -5 32 -114 70 -241 39 -127 70 -233 70 -237 0 -3 19 -5
43 -5 l43 0 57 178 c32 97 57 183 57 190 0 25 17 2 24 -30 3 -18 27 -102 53
-185 l48 -153 43 0 c23 0 42 2 42 5 0 2 34 109 75 237 41 128 75 235 75 238 0
3 -19 4 -43 2 l-43 -4 -41 -151 c-23 -84 -47 -172 -54 -197 l-11 -45 -39 130
c-74 251 -81 270 -109 273 -14 1 -31 -2 -38 -6 -7 -5 -38 -89 -68 -188 -31
-98 -58 -186 -60 -194 -3 -8 -28 73 -55 180 -28 107 -52 196 -53 197 -8 8 -86
14 -86 6z"/>
<path d="M824 1254 c-7 -3 14 -88 60 -242 l72 -237 41 -3 41 -3 55 168 c30 92
58 182 62 198 7 29 8 27 22 -25 7 -30 34 -119 59 -198 l45 -143 41 3 42 3 78
240 c42 132 78 241 78 243 0 1 -18 2 -40 2 -27 0 -42 -5 -48 -17 -8 -15 -70
-237 -100 -353 l-9 -35 -12 43 c-6 23 -34 113 -60 200 l-49 157 -33 -3 c-19
-2 -37 -6 -40 -8 -3 -2 -32 -88 -65 -193 -32 -104 -60 -189 -61 -187 -1 1 -21
74 -43 161 -23 88 -46 177 -51 198 -9 33 -13 37 -42 36 -18 0 -37 -3 -43 -5z"/>
<path d="M1570 1253 c0 -5 32 -115 72 -246 l71 -238 41 3 40 3 39 110 c21 61
49 148 62 195 20 76 23 82 30 55 4 -16 30 -105 58 -197 l52 -168 41 0 40 0 77
238 c42 130 77 240 77 242 0 3 -19 4 -42 4 l-42 -1 -43 -154 c-23 -85 -47
-174 -54 -199 l-11 -45 -34 115 c-18 63 -46 153 -61 200 l-28 85 -35 -3 c-19
-2 -36 -5 -38 -6 -1 -2 -27 -83 -58 -182 -31 -98 -58 -186 -61 -194 -2 -8 -26
69 -53 172 -26 103 -50 194 -54 203 -6 15 -86 23 -86 8z"/>
<path d="M1157 830 c-3 -14 -9 -52 -12 -86 l-7 -60 -191 -12 c-104 -7 -191
-11 -193 -9 -2 2 -10 41 -17 88 -14 81 -15 83 -27 54 -7 -19 -10 -52 -6 -92 7
-69 10 -66 -74 -78 -25 -4 -92 -18 -148 -31 -57 -13 -105 -24 -107 -24 -2 0
-16 22 -32 50 -26 47 -63 69 -63 37 0 -30 109 -187 184 -265 414 -432 1107
-395 1471 79 37 48 115 177 115 190 0 3 -9 5 -21 5 -15 0 -28 -14 -46 -49 -22
-44 -27 -49 -51 -43 -137 30 -272 56 -295 56 l-28 0 6 55 c8 60 0 125 -15 125
-6 0 -10 -10 -10 -22 0 -12 -5 -50 -11 -86 -10 -58 -13 -63 -33 -58 -11 3 -99
11 -193 18 l-173 12 -1 65 c0 37 -4 75 -8 86 -7 18 -8 17 -14 -5z m-17 -441
l0 -252 -62 7 c-106 10 -168 28 -180 49 -18 35 -85 229 -111 325 -19 68 -23
94 -14 98 14 5 225 20 310 23 l57 1 0 -251z m210 241 c80 -6 159 -13 177 -16
l31 -6 -24 -89 c-13 -50 -45 -147 -71 -216 l-48 -127 -44 -13 c-24 -7 -76 -15
-117 -19 l-74 -7 0 245 c0 225 2 258 19 258 3 0 71 -5 151 -10z m-599 -130
c15 -58 44 -150 64 -204 20 -54 35 -99 33 -101 -10 -11 -195 94 -266 151 -85
68 -187 183 -174 195 6 6 187 49 262 62 49 9 52 5 81 -103z m1024 75 c76 -15
143 -29 147 -31 11 -7 -43 -75 -112 -143 -59 -58 -190 -148 -255 -176 -88 -37
-84 -37 -75 -7 4 15 17 52 29 82 20 52 57 175 81 267 8 31 15 40 28 37 9 -2
80 -15 157 -29z"/>
</g>
</svg>
