<?xml version="1.0" standalone="no"?>
<!DOCTYPE svg PUBLIC "-//W3C//DTD SVG 20010904//EN"
 "http://www.w3.org/TR/2001/REC-SVG-20010904/DTD/svg10.dtd">
<svg version="1.0" xmlns="http://www.w3.org/2000/svg"
 width="800.000000pt" height="800.000000pt" viewBox="0 0 800.000000 800.000000"
 preserveAspectRatio="xMidYMid meet">
<metadata>
Created by potrace 1.16, written by Peter Selinger 2001-2019
</metadata>
<g transform="translate(0.000000,800.000000) scale(0.100000,-0.100000)"
fill="#000000" stroke="none">
<path d="M3640 7804 c-469 -39 -922 -165 -1335 -372 -520 -260 -1011 -672
-1376 -1157 -500 -663 -748 -1417 -748 -2275 0 -1050 378 -1961 1124 -2705
665 -664 1443 -1027 2355 -1100 458 -37 934 2 1350 111 621 163 1199 502 1685
989 749 752 1124 1655 1124 2705 0 429 -63 838 -189 1220 -246 745 -768 1436
-1455 1923 -724 514 -1589 740 -2535 661z m-789 -2352 c287 -67 529 -241 704
-507 119 -181 191 -369 235 -619 21 -115 38 -337 32 -403 l-3 -33 -1057 -2
-1057 -3 -3 -55 c-5 -72 15 -223 39 -313 43 -153 137 -301 251 -396 74 -61
234 -142 333 -168 100 -25 411 -26 505 0 109 30 222 92 300 164 91 84 127 137
162 237 l27 81 230 3 231 2 -7 -32 c-11 -61 -55 -193 -88 -264 -120 -262 -385
-480 -689 -568 -156 -45 -288 -59 -491 -53 -255 8 -410 44 -595 137 -315 159
-527 437 -630 825 -82 307 -95 613 -39 890 86 425 344 783 695 962 121 62 213
96 319 116 125 25 130 25 325 22 140 -3 206 -8 271 -23z m2138 -487 c194 -283
356 -513 361 -510 5 3 172 235 371 515 l363 510 288 0 c158 0 288 -4 288 -8 0
-4 -227 -311 -505 -682 l-504 -674 47 -65 c25 -36 282 -394 570 -796 l523
-730 -303 -3 c-166 -1 -308 0 -314 2 -7 3 -195 277 -419 611 l-408 606 -31
-44 c-17 -25 -202 -299 -411 -611 l-380 -566 -292 0 c-161 0 -293 2 -293 5 0
3 244 349 543 768 299 419 546 767 550 773 4 7 -211 308 -503 705 -280 382
-510 697 -510 702 0 4 139 7 308 7 l308 0 353 -515z"/>
<path d="M2348 5054 c-342 -62 -593 -347 -643 -731 l-7 -53 817 0 816 0 -6 38
c-37 231 -102 377 -228 508 -194 205 -462 290 -749 238z"/>
</g>
</svg>
